<?xml version="1.0" encoding="UTF-8"?>
<svg width="24px" height="24px" viewBox="0 0 24 24" version="1.1" xmlns="http://www.w3.org/2000/svg">
    <g stroke="none" stroke-width="1" fill="none" fill-rule="evenodd">
        <path d="M20,9 L20,4 L15,4 L18.29,7.29 L15,10.59 L16.41,12 L20,8.41 L20,13 L22,13 L22,9 L20,9 Z M3,11 C3,15.97 7.03,20 12,20 C12.83,20 13.63,19.89 14.39,19.69 L13.6,17.78 C13.08,17.92 12.55,18 12,18 C8.13,18 5,14.87 5,11 C5,7.13 8.13,4 12,4 C14.4,4 16.5,5.25 17.65,7.15 L19.22,5.58 C17.58,3.07 14.96,1.5 12,1.5 C6.7,1.5 2.23,5.8 2.03,11.06 L2,11 L3,11 Z" fill="#000000" fill-rule="nonzero"></path>
    </g>
</svg>
