<?xml version="1.0" encoding="UTF-8"?>
<svg width="48" height="48" viewBox="0 0 48 48" fill="none" xmlns="http://www.w3.org/2000/svg">
  <path d="M24 32C27.3137 32 30 29.3137 30 26C30 22.6863 27.3137 20 24 20C20.6863 20 18 22.6863 18 26C18 29.3137 20.6863 32 24 32Z" fill="#4CD964"/>
  <path d="M40 12H33L30 8H18L15 12H8C5.8 12 4 13.8 4 16V36C4 38.2 5.8 40 8 40H40C42.2 40 44 38.2 44 36V16C44 13.8 42.2 12 40 12ZM24 36C18.48 36 14 31.52 14 26C14 20.48 18.48 16 24 16C29.52 16 34 20.48 34 26C34 31.52 29.52 36 24 36Z" fill="#4CD964"/>
</svg>
