<?xml version="1.0" encoding="UTF-8"?>
<svg width="24px" height="24px" viewBox="0 0 24 24" version="1.1" xmlns="http://www.w3.org/2000/svg">
    <g stroke="none" stroke-width="1" fill="none" fill-rule="evenodd">
        <path d="M4.5,9.5 L3,11 L7,15 L9.5,12.5 L4.5,9.5 Z M22,6 L17,1 L13.5,4.5 L19.5,10.5 L22,6 Z M9.5,4.5 L7,7 L11,11 L13.5,8.5 L9.5,4.5 Z M15,11 L13,13 L17,17 L19,15 L15,11 Z M22,16 L20.5,14.5 L19,16 L20.5,17.5 L22,16 Z M2,5 L3.5,6.5 L5,5 L3.5,3.5 L2,5 Z M6,19 L7.5,20.5 L9,19 L7.5,17.5 L6,19 Z" fill="#000000" fill-rule="nonzero"></path>
    </g>
</svg>
